<svg width="12" height="12" viewBox="0 0 12 12" fill="none" xmlns="http://www.w3.org/2000/svg">
<path d="M1.49977 10.6667H10.4998C10.6898 10.6667 10.8727 10.7309 11.0116 10.8462C11.1504 10.9615 11.2348 11.1194 11.2478 11.2879C11.2607 11.4564 11.2013 11.623 11.0813 11.754C10.9614 11.8851 10.79 11.9708 10.6018 11.9938L10.4998 12H1.49977C1.30975 11.9999 1.12683 11.9358 0.98798 11.8205C0.849129 11.7052 0.764697 11.5473 0.751745 11.3788C0.738793 11.2103 0.798287 11.0437 0.918204 10.9126C1.03812 10.7816 1.20952 10.6959 1.39777 10.6729L1.49977 10.6667ZM5.89777 0.0062222L5.99977 0C6.18101 6.79369e-06 6.35611 0.0583491 6.4927 0.164237C6.62929 0.270126 6.71812 0.416397 6.74277 0.576L6.74977 0.666667V7.50044L9.00477 5.49689C9.13194 5.38388 9.30056 5.31526 9.47989 5.30351C9.65922 5.29176 9.83734 5.33768 9.98177 5.43289L10.0658 5.49689C10.1929 5.60993 10.2701 5.75981 10.2833 5.91922C10.2965 6.07863 10.2449 6.23695 10.1378 6.36533L10.0658 6.44L6.52977 9.58222C6.40278 9.69513 6.23443 9.76377 6.05532 9.77568C5.87621 9.78759 5.69824 9.74197 5.55377 9.64711L5.46977 9.58222L1.93377 6.44C1.79958 6.32104 1.72102 6.16134 1.7139 5.993C1.70678 5.82466 1.77162 5.66016 1.89538 5.53259C2.01915 5.40501 2.19266 5.32381 2.38103 5.30531C2.5694 5.28682 2.75867 5.3324 2.91077 5.43289L2.99477 5.49689L5.24977 7.50222V0.666667C5.24978 0.505567 5.31541 0.349918 5.43454 0.228506C5.55366 0.107094 5.71822 0.0281318 5.89777 0.0062222Z" fill="#222222"/>
</svg>
